<svg width="20" height="14" viewBox="0 0 20 14" fill="none" xmlns="http://www.w3.org/2000/svg">
<path d="M18.5714 0H1.42857C1.04969 0 0.686328 0.1475 0.418419 0.41005C0.15051 0.672601 0 1.0287 0 1.4V12.6C0 12.9713 0.15051 13.3274 0.418419 13.5899C0.686328 13.8525 1.04969 14 1.42857 14H18.5714C18.9503 14 19.3137 13.8525 19.5816 13.5899C19.8495 13.3274 20 12.9713 20 12.6V1.4C20 1.0287 19.8495 0.672601 19.5816 0.41005C19.3137 0.1475 18.9503 0 18.5714 0ZM17 1.4L10 6.146L3 1.4H17ZM1.42857 12.6V2.037L9.59286 7.574C9.71243 7.65529 9.85448 7.69885 10 7.69885C10.1455 7.69885 10.2876 7.65529 10.4071 7.574L18.5714 2.037V12.6H1.42857Z" fill="#CECDCE"/>
</svg>
