<svg width="19" height="16" viewBox="0 0 19 16" fill="none" xmlns="http://www.w3.org/2000/svg">
<path d="M11.5 11.5V13.25C11.5 13.7141 11.3156 14.1592 10.9874 14.4874C10.6592 14.8156 10.2141 15 9.75 15H2.75C2.28587 15 1.84075 14.8156 1.51256 14.4874C1.18437 14.1592 1 13.7141 1 13.25V2.75C1 2.28587 1.18437 1.84075 1.51256 1.51256C1.84075 1.18437 2.28587 1 2.75 1H9.4C10.3664 1 11.5 1.78356 11.5 2.75V4.5M14.3 11.5L17.8 8L14.3 4.5M5.9 8H17.1" stroke="#CECDCE" stroke-width="1.6" stroke-linecap="round" stroke-linejoin="round"/>
</svg>
