<svg width="16" height="14" viewBox="0 0 16 14" fill="none" xmlns="http://www.w3.org/2000/svg">
<path d="M0 13.2244V1.50491C0 1.09106 0.147482 0.736655 0.442445 0.441692C0.736906 0.147231 1.09106 0 1.50491 0H13.5442C13.9581 0 14.3125 0.147231 14.6074 0.441692C14.9019 0.736655 15.0491 1.09106 15.0491 1.50491V10.5344C15.0491 10.9482 14.9019 11.3027 14.6074 11.5976C14.3125 11.8921 13.9581 12.0393 13.5442 12.0393H3.00983L1.27918 13.77C1.0409 14.0082 0.768007 14.0614 0.460503 13.9295C0.153501 13.798 0 13.563 0 13.2244ZM1.50491 11.4185L2.38905 10.5344H13.5442V1.50491H1.50491V11.4185Z" fill="#CECDCE"/>
</svg>
